<?xml version="1.0" encoding="UTF-8"?>
<svg id="Capa_1" xmlns="http://www.w3.org/2000/svg" version="1.1" viewBox="0 0 53.1 53.1">
  <!-- Generator: Adobe Illustrator 29.5.1, SVG Export Plug-In . SVG Version: 2.1.0 Build 141)  -->
  <defs>
    <style>
      .st0 {
        fill: #706f6f;
      }
    </style>
  </defs>
  <path class="st0" d="M26.6,53c-3.6,0-7-.7-10.3-2.1-3.2-1.3-6-3.2-8.4-5.7s-4.3-5.3-5.7-8.4C.8,33.6,0,30.1,0,26.6,0,19.5,2.8,12.8,7.8,7.8,12.8,2.8,19.5,0,26.6,0s0,0,0,0c3.6,0,7,.7,10.3,2.1,3.2,1.3,6,3.2,8.4,5.7,2.4,2.4,4.3,5.3,5.7,8.4,1.4,3.3,2.1,6.7,2.1,10.3s-.4,5.7-1.3,8.3c-.6,1.8-1.7,3.3-3.2,4.4-1.5,1.1-3.3,1.7-5.2,1.7-3.4,0-6.3-1.9-7.8-4.7,0,.1-.2.2-.3.3-2.3,2.8-5.5,4.4-8.8,4.4s-6.5-1.3-8.7-3.7c-2.3-2.4-3.6-5.8-3.6-9.6s1.5-8,4.3-11c2.6-2.9,6.1-4.5,9.5-4.5,6,0,10,3.3,10.2,3.5.5.4.7,1,.7,1.6v15c0,2.5,2,4.6,4.6,4.6s3.7-1.3,4.3-3.1c.7-2.2,1.1-4.6,1.1-7.1,0-5.9-2.3-11.5-6.5-15.7s-9.8-6.5-15.7-6.5c-6,0-11.6,2.3-15.8,6.5-4.2,4.2-6.5,9.8-6.5,15.8,0,5.9,2.3,11.5,6.5,15.7s9.8,6.5,15.7,6.5,4.5-.3,6.6-1c1.1-.3,2.3.3,2.6,1.4.3,1.1-.3,2.3-1.4,2.6-2.5.8-5.2,1.2-7.9,1.2ZM28,16.4c-4.5,0-9.5,4.8-9.5,11.3s.8,5,2.4,6.7c1.5,1.5,3.5,2.4,5.7,2.4,4.5,0,8.1-4.6,8.1-10.2s0,0,0,0v-8.2c-1.2-.7-3.6-1.9-6.7-1.9Z"/>
</svg>