<?xml version="1.0" encoding="UTF-8"?>
<svg id="Capa_1" data-name="Capa 1" xmlns="http://www.w3.org/2000/svg" viewBox="0 0 384 331.92">
  <defs>
    <style>
      .cls-1 {
        fill: none;
      }
    </style>
  </defs>
  <g>
    <path d="M337.88,82.57l-30.49,102.94h-143.32c1.72,4.7,1.68,10.62,3.24,15.25.31.93.41,1.76,1.6,1.81h128.22c29.22,4.93,29,46.13-.28,50.62,6.07,13.99-4.26,31.95-19.24,33.97-20.09,2.71-34.49-14.08-29.2-33.41h-32.48c9.46,44.6-58.4,44.6-49.01,0h-13.68v-17.06h139.9c.19,0,3.11-.83,3.55-1.01,7.72-3.13,6.72-14.1-1.3-16.01l-141.49-.11L121.05,61.53h-25.93v-17.06h40.46l7.74,37,194.56.54v.57ZM315.09,98.49h-168.1l14.22,69.69,132.99.17,20.89-69.86ZM189,253.89c-8.18,1.69-7.99,14.99.48,16.32,14.21,2.24,13.68-19.26-.48-16.32ZM270.48,253.89c-8.18,1.69-7.99,14.99.48,16.32,14.21,2.24,13.68-19.26-.48-16.32Z"/>
    <rect x="46.12" y="157.64" width="43.31" height="17.06"/>
    <rect x="64.35" y="123.52" width="46.73" height="17.06"/>
    <rect x="64.35" y="191.77" width="46.73" height="17.06"/>
  </g>
  <rect class="cls-1" width="384" height="331.92"/>
</svg>