<?xml version="1.0" encoding="UTF-8"?>
<svg id="Capa_1" xmlns="http://www.w3.org/2000/svg" version="1.1" viewBox="0 0 92.2 68.9">
  <!-- Generator: Adobe Illustrator 29.5.1, SVG Export Plug-In . SVG Version: 2.1.0 Build 141)  -->
  <defs>
    <style>
      .st0 {
        fill: #387fc2;
        stroke: #387fc2;
        stroke-miterlimit: 10;
        stroke-width: 3px;
      }
    </style>
  </defs>
  <path class="st0" d="M83.4,61H8.8c-.7,0-1.3-.6-1.3-1.3V9.3c0-.7.6-1.3,1.3-1.3h74.7c.7,0,1.3.6,1.3,1.3v50.4c0,.7-.6,1.3-1.3,1.3ZM10.1,58.3h72V10.6H10.1s0,47.7,0,47.7Z"/>
  <path class="st0" d="M46.1,41.1c-2.3,0-4.7-.8-6.5-2.5L7.9,10.2c-.4-.4-.6-.9-.4-1.5s.7-.9,1.3-.9h74.7c.6,0,1.1.3,1.2.9s0,1.1-.4,1.5l-31.7,28.3h0c-1.9,1.7-4.2,2.5-6.5,2.5h0ZM12.3,10.6l29.1,26c2.7,2.4,6.8,2.4,9.5,0l29.1-26H12.3ZM51.8,37.6h0,0Z"/>
  <path class="st0" d="M83.4,60.6H8.8c-.6,0-1.1-.3-1.2-.9s0-1.1.4-1.5l27.8-24.9c.5-.5,1.4-.5,1.9.1.5.5.4,1.4-.1,1.9l-25.2,22.5h67.7l-25.2-22.5c-.5-.5-.6-1.3-.1-1.9.5-.5,1.3-.6,1.9-.1l27.8,24.8c.4.4.6,1,.4,1.5s-.7.9-1.2.9h0Z"/>
</svg>