<?xml version="1.0" encoding="UTF-8"?>
<svg id="Capa_1" data-name="Capa 1" xmlns="http://www.w3.org/2000/svg" viewBox="0 0 140.4 125.1">
  <defs>
    <style>
      .cls-1 {
        fill: #47509e;
      }

      .cls-2 {
        fill: #e1e6f6;
      }
    </style>
  </defs>
  <path class="cls-1" d="M129.07,62.19l-7.57,6.4,2.49,1.96c1.91,1.53,3.1,3.7,3.33,6.11.24,2.41-.48,4.76-2.04,6.62-1.85,2.22-4.45,3.44-7.2,3.44-1.16,0-2.3-.21-3.36-.64.11.4.16.79.21,1.22.24,2.41-.48,4.76-2.04,6.62-2.83,3.39-7.67,4.31-11.43,2.43.45,2.43-.21,5.03-1.91,7.04-2.75,3.25-7.41,4.15-11.03,2.38,1.27,3.02.87,6.67-1.32,9.39-1.83,2.25-4.42,3.49-7.17,3.49-2.09,0-4.13-.74-5.74-2.06l-4.84-4.02-1.91,1.59c-1.67,1.43-3.78,2.2-5.95,2.2-2.75,0-5.32-1.19-7.09-3.28-.4-.45-.71-.95-1.01-1.43-.13-.26-.24-.53-.37-.79-.11-.24-.24-.48-.32-.71-.13-.34-.21-.69-.29-1.03-.05-.16-.08-.34-.13-.5-.05-.4-.11-.77-.13-1.16v-.42c0-.4,0-.77.05-1.16.03-.13.03-.24.05-.37-1.16.53-2.43.82-3.76.82-2.73,0-5.29-1.19-7.06-3.28-1.8-2.14-2.54-4.82-2.2-7.38-1.06.42-2.17.66-3.31.66-2.75,0-5.32-1.22-7.09-3.31-1.91-2.25-2.57-5.11-2.09-7.75-1.08.42-2.22.66-3.39.66-2.75,0-5.32-1.19-7.09-3.28-1.69-2.01-2.46-4.42-2.25-6.88.19-2.36,1.27-4.5,3.04-6.09l-6.38-5.19c-1.77-1.46-2.86-3.52-3.1-5.79-.24-2.28.42-4.5,1.88-6.3l.71-.87L40.35,14.91c.08-.11.26-.26.37-.34.77-.48,1.48-.82,2.22-1.06.05-.03.11-.11.19-.13.9-.24,1.69-.37,2.46-.42l3.04.34,4.21.45h.03l4.18-1.3,17.52-3.18c3.92-.66,16.8-2.83,17.83-2.83,0,0,.26.03.29.03v.03h.03l.32.05.08.03h.08c.21.03.37.08.37.08,1.08.29,1.77.71,2.54,1.19,1.32.85,2.3,1.72,3.07,2.73l.4.5c.05.05.11.11.13.19l.53.64,30.09,35.62c.16.19.34.42.48.64,3.18,4.37,2.43,10.56-1.72,14.05Z"/>
  <g>
    <path class="cls-2" d="M130.79,48.14c-.13-.21-.32-.45-.48-.64l-30.09-35.62-.53-.64c-.03-.08-.08-.13-.13-.19l-.4-.5c-.77-1.01-1.75-1.88-3.07-2.73-.77-.48-1.46-.9-2.54-1.19,0,0-.16-.05-.37-.08h-.08l-.08-.03-.32-.05h-.03v-.03s-.29-.03-.29-.03c-1.03,0-13.92,2.17-17.83,2.83l-17.52,3.18-4.18,1.3h-.03l-4.21-.45-3.04-.34c-.77.05-1.56.19-2.46.42-.08.03-.13.11-.19.13-.74.24-1.46.58-2.22,1.06-.11.08-.29.24-.37.34L10.29,51.5l-.71.87c-1.46,1.8-2.12,4.02-1.88,6.3.24,2.28,1.32,4.34,3.1,5.79l6.38,5.19c-1.77,1.59-2.86,3.73-3.04,6.09-.21,2.46.56,4.87,2.25,6.88,1.77,2.09,4.34,3.28,7.09,3.28,1.16,0,2.3-.24,3.39-.66-.48,2.65.19,5.5,2.09,7.75,1.77,2.09,4.34,3.31,7.09,3.31,1.14,0,2.25-.24,3.31-.66-.34,2.57.4,5.24,2.2,7.38,1.77,2.09,4.34,3.28,7.06,3.28,1.32,0,2.59-.29,3.76-.82-.03.13-.03.24-.05.37-.05.4-.05.77-.05,1.16v.42c.03.4.08.77.13,1.16.05.16.08.34.13.5.08.34.16.69.29,1.03.08.24.21.48.32.71.13.26.24.53.37.79.29.48.61.98,1.01,1.43,1.77,2.09,4.34,3.28,7.09,3.28,2.17,0,4.29-.77,5.95-2.2l1.91-1.59,4.84,4.02c1.61,1.32,3.65,2.06,5.74,2.06,2.75,0,5.35-1.24,7.17-3.49,2.2-2.73,2.59-6.38,1.32-9.39,3.63,1.77,8.28.87,11.03-2.38,1.69-2.01,2.36-4.6,1.91-7.04,3.76,1.88,8.6.95,11.43-2.43,1.56-1.85,2.28-4.21,2.04-6.62-.05-.42-.11-.82-.21-1.22,1.06.42,2.2.64,3.36.64,2.75,0,5.35-1.22,7.2-3.44,1.56-1.85,2.28-4.21,2.04-6.62-.24-2.41-1.43-4.58-3.33-6.11l-2.49-1.96,7.57-6.4c4.15-3.49,4.9-9.68,1.72-14.05ZM42.28,16.65c.42-.24.82-.45,1.22-.61l.61.42-2.25.71.42-.53ZM38.97,19.01c0-.13.05-.29.11-.42-.05.13-.08.26-.08.4l-.03.58v-.56ZM27.72,81.69c-1.19,1.01-2.73,1.56-4.26,1.56-1.96,0-3.81-.85-5.16-2.46-1.16-1.35-1.69-3.07-1.56-4.84.16-1.75.98-3.36,2.33-4.5l15.74-13.26c1.19-.98,2.7-1.53,4.26-1.53,1.96,0,3.81.85,5.16,2.49,1.14,1.35,1.69,3.07,1.53,4.82-.16,1.77-.98,3.36-2.36,4.5l-9.92,8.36-4.05,3.18c-.16.13-.26.32-.32.5l-1.4,1.19ZM41.17,91.35h-.03v.03l-.85.71c-.26.21-.53.4-.79.58-1.06.64-2.25.98-3.47.98-1.98,0-3.81-.87-5.19-2.49-2.22-2.62-2.01-6.59.48-9,.16-.13.24-.32.29-.5l20.53-16.04c2.3-.4,4.68.42,6.27,2.36,1.51,1.77,1.93,4.21,1.16,6.43l-18.42,16.93ZM53.95,101.22s-.08.05-.11.08l-1.11.93c-2.7,2.14-6.85,1.83-9.29-1.03-1.91-2.25-2.09-5.48-.45-7.94l12.01-10.19s2.2-1.67,4.71-1.67c1.8,0,3.31.79,4.74,2.59,1.96,2.33,2.06,5.69.29,8.15-.21.29-.48.53-.74.79-.42.24-.82.53-1.22.85l-7.54,6.32c-.08.08-.13.16-.21.24l-1.08.87ZM65.85,112.15c-1.01.85-2.25,1.35-3.52,1.48-2.14.21-4.39-.58-5.93-2.38-2.3-2.75-2.04-6.77.58-9.13l7.51-6.32c1.19-.98,2.7-1.53,4.23-1.53,1.96,0,3.81.85,5.19,2.49,2.2,2.59,2.04,6.4-.21,8.76l-7.86,6.64ZM85.09,113.66c-2.2,2.67-6.48,3.12-9.16.93l-4.47-3.73,4.02-3.41c2.28-2.3,3.04-5.5,2.36-8.49l6.43,5.32c2.78,2.28,3.18,6.43.82,9.39ZM122.35,72.59c1.38,1.08,2.22,2.62,2.38,4.34.19,1.69-.32,3.36-1.53,4.82-2.22,2.65-6.56,3.1-9.26.9l-22.49-18.23c-.29-.26-.69-.34-1.08-.29-.37.08-.71.34-.9.69l-.24.45c-.29.56-.13,1.24.34,1.64l20.4,16.33c1.38,1.08,2.22,2.62,2.38,4.34.19,1.69-.34,3.36-1.56,4.82-2.2,2.65-6.59,3.07-9.29.9l-20.35-16.3c-.58-.45-1.56-.13-2.01.42-.24.26-.34.61-.29.98.03.34.21.66.48.87l17.36,13.81c.42.32.79.69,1.11,1.14.19.24.34.48.5.77,1.16,2.2.87,4.84-.82,6.85-2.14,2.54-6.35,2.96-8.97.87l-17.2-13.68c-.56-.45-1.35-.34-1.8.19l-.58.69c-.42.53-.37,1.27.11,1.75-.11,0-.19-.03-.29-.03-.26,0-.53.05-.77.05,1.24-3.1.71-6.72-1.56-9.47-1.83-2.25-4.13-3.44-6.69-3.44-.34,0-.71.03-1.06.08l2.94-2.7c.16-.13.26-.29.34-.48,1.24-3.2.69-6.8-1.59-9.5-2.17-2.59-5.69-3.78-9.05-3.07-.19.03-.37.13-.53.24l-2.59,2.04c.08-.4.19-.77.21-1.16.21-2.46-.53-4.87-2.22-6.88-1.77-2.12-4.37-3.31-7.09-3.31-2.17,0-4.29.77-5.95,2.17l-13.97,11.75-6.72-5.48c-2.54-2.09-2.91-5.87-.85-8.44l27.31-33.26-1.03,28.26c-.03.37.11.71.37.98.21.24.58.4.95.4.5,0,12.6-.11,15-8.81.58-2.17.71-6.69.69-10.48l3.92-.74,8.65,2.17,32.04,22.07,18.95,14.82,3.92,3.18ZM119.36,66.93l-18.34-14.42-30.91-21.27-.71.66.71-.69-2.41-1.35-8.57-2.12c-.19-.05-.4-.05-.56-.03l-5.29.98c-.64.11-1.08.66-1.08,1.32.08,5.37-.13,9.23-.56,10.85-1.51,5.29-8.15,6.51-11.09,6.8l1.06-27.62,16.06-5.03,17.33-3.12c4.45-.77,11.01-1.85,14.58-2.43l3.92-.03c.4.16.77.4,1.32.74.9.58,1.67,1.24,2.28,2.04l.26.32c.03.08.08.16.13.24l30.83,36.49c.11.13.21.29.32.42,2.38,3.28,1.8,7.89-1.27,10.5l-8.02,6.75Z"/>
    <polygon class="cls-2" points="92.72 6.49 92.71 6.49 93.03 6.55 92.72 6.49"/>
  </g>
</svg>