<?xml version="1.0" encoding="UTF-8"?>
<svg id="Capa_1" xmlns="http://www.w3.org/2000/svg" version="1.1" viewBox="0 0 53.1 53.1">
  <!-- Generator: Adobe Illustrator 29.5.1, SVG Export Plug-In . SVG Version: 2.1.0 Build 141)  -->
  <defs>
    <style>
      .st0 {
        fill: #706f6f;
      }
    </style>
  </defs>
  <circle class="st0" cx="40.6" cy="12.6" r="3.1"/>
  <path class="st0" d="M26.8,13.5c-7.2,0-13.1,5.9-13.1,13.1s5.9,13.1,13.1,13.1,13.1-5.9,13.1-13.1-5.9-13.1-13.1-13.1ZM26.8,35c-4.6,0-8.4-3.8-8.4-8.4s3.8-8.4,8.4-8.4,8.4,3.8,8.4,8.4-3.8,8.4-8.4,8.4Z"/>
  <path class="st0" d="M37.2,53.1H16C7.2,53.1,0,46,0,37.2V16C0,7.2,7.2,0,16,0h21.2c8.8,0,16,7.2,16,16v21.2c0,8.8-7.2,16-16,16ZM16,5c-6,0-11,4.9-11,11v21.2c0,6,4.9,11,11,11h21.2c6,0,11-4.9,11-11V16c0-6-4.9-11-11-11H16Z"/>
</svg>