<?xml version="1.0" encoding="UTF-8"?>
<svg id="Capa_1" xmlns="http://www.w3.org/2000/svg" version="1.1" viewBox="0 0 71.4 84.9">
  <!-- Generator: Adobe Illustrator 29.5.1, SVG Export Plug-In . SVG Version: 2.1.0 Build 141)  -->
  <defs>
    <style>
      .st0 {
        fill: #fff;
        stroke: #fff;
        stroke-miterlimit: 10;
        stroke-width: 3px;
      }
    </style>
  </defs>
  <path class="st0" d="M35.8,81.3c-.3,0-.6,0-.9-.3C7.4,56.6,8.8,31.7,8.9,30.6c0-14.7,12.1-26.8,26.9-26.8s26.9,12,26.9,26.9,1.2,26.2-26,50.3c-.2.2-.6.3-.9.3h0ZM35.8,6.5c-13.4,0-24.2,10.9-24.2,24.2s-1.3,24.2,24.2,47.4c25.6-23.2,24.3-47.1,24.2-47.3h0c0-13.5-10.9-24.3-24.2-24.3h0ZM62.7,30.7h0ZM35.8,42.8c-6.7,0-12.1-5.4-12.1-12.1s5.4-12.1,12.1-12.1,12.1,5.4,12.1,12.1-5.4,12.1-12.1,12.1ZM35.8,21.3c-5.2,0-9.5,4.2-9.5,9.5s4.2,9.5,9.5,9.5,9.5-4.2,9.5-9.5-4.2-9.5-9.5-9.5Z"/>
</svg>