<?xml version="1.0" encoding="UTF-8"?>
<svg id="Capa_1" xmlns="http://www.w3.org/2000/svg" version="1.1" xmlns:xlink="http://www.w3.org/1999/xlink" viewBox="0 0 165.1 163.8">
  <!-- Generator: Adobe Illustrator 29.5.1, SVG Export Plug-In . SVG Version: 2.1.0 Build 141)  -->
  <defs>
    <style>
      .st0 {
        fill: #00aae9;
      }

      .st1 {
        isolation: isolate;
      }

      .st2 {
        fill: #2457d6;
      }

      .st3 {
        fill: #2ecc71;
      }
    </style>
  </defs>
  <rect class="st0" x="-338.9" y="-122.2" width="220.8" height="187.5"/>
  <path class="st2" d="M24.7,145.3c-2.9-2.7-4.3-4.5-4.4-4.7,0,0,0,0,0,0t0,0s0,0,0,0c.3.4.7.8,1.3,1.4,1.1,1.1,2.1,2.2,3.1,3.3Z"/>
  <path class="st2" d="M39.3,156.3c-.9-.2-1.7-.5-2.5-1.1.1,0,1,.5,2.5,1.1Z"/>
  <path class="st2" d="M39.3,156.3c-1.5-.6-2.4-1-2.5-1.1,0,0,0,0,0,0-5.3-3.8-9.3-7.2-12-9.7,7.1,7.3,14.1,12.9,27,15.2,2,.4,3.9.7,5.9,1.1-8.4-1.7-15-4.1-18.4-5.5ZM20.2,140.7s0,0,0,0h0s0,0,0,0Z"/>
  <path class="st2" d="M165.1,0c-2.4,0-233.5,8.6-144.9,140.7t0,0s0,0,0,0c.3.4.7.8,1.3,1.4,1.1,1.1,2.1,2.2,3.1,3.3,0,0,0,0,.1.1,2.7,2.5,6.6,5.9,12,9.7,0,0,0,0,0,0,.1,0,1,.5,2.5,1.1,3.4,1.4,10.1,3.8,18.4,5.5.2,0,.5,0,.7.1,0,0,.1,0,.2,0,.6.1,1.3.2,1.9.4.8.1,1.7.3,2.6.4.6,0,1.1.2,1.7.2.3,0,.7,0,1,.1.4,0,.9,0,1.3.2.5,0,1,0,1.5.1.4,0,.8,0,1.1,0,.6,0,1.2,0,1.8.1,0,0,.1,0,.2,0,1.6,0,3.2.1,4.8.1,9.5,0,19.6-1.7,29.1-6.4.7-.3,1.3-.7,2-1,.3-.2.7-.4,1-.5.6-.4,1.3-.8,1.9-1.2,9.6-6.1,18.4-15.8,24.9-30.7C163.5,60.1,165.1,1.2,165.1,0t0,0ZM127.2,120.4c-5.6,12.7-13.3,22-23.1,27.6-7.8,4.5-17.1,6.8-27.6,6.8s-10.7-.6-16.3-1.7c-2.2-.4-4.3-.8-6.7-1.3-1-.2-1.9-.4-2.8-.6-5-1.2-8.7-3.1-12.2-5.6,9.1-31.8,49.7-77.4,51.8-80.1,0,0,0,0,0,0-31.3,15.4-55.1,50.1-65,66.4-1.3-2.1-2.6-4.1-3.7-6.1-6.4-11.2-10.4-21.8-11.9-31.4-1.6-10.6-.3-20,4.2-28.7,13.5-26.3,53.1-40.3,83.9-47.4,23.5-5.4,45.5-7.7,57.8-8.7-1.7,19.2-7.7,63.9-28.3,110.8Z"/>
  <rect class="st3" x="249.9" y="18.5" width="87.8" height="63.4"/>
  <image class="st1" width="49" height="60" transform="translate(359.4 145.7) scale(1)" xlink:href="logo-blue-borde-1.png"/>
</svg>