<?xml version="1.0" encoding="UTF-8"?>
<svg id="Capa_1" xmlns="http://www.w3.org/2000/svg" version="1.1" viewBox="0 0 90.7 84.9">
  <!-- Generator: Adobe Illustrator 29.5.1, SVG Export Plug-In . SVG Version: 2.1.0 Build 141)  -->
  <defs>
    <style>
      .st0 {
        fill: #387fc2;
        stroke: #387fc2;
        stroke-miterlimit: 10;
        stroke-width: 3px;
      }
    </style>
  </defs>
  <path class="st0" d="M62.1,81c-8.5,0-20.9-3.7-36.1-18.8,0,0,0,0-.1,0,0,0-.1-.1-.1-.2,0,0,0,0-.1-.1h0C-3.5,32.5,9.6,13.7,10.2,12.9l3.5-5.7s0,0,0-.1c1.4-1.9,3.6-3.1,5.9-3.2,2.4-.2,4.7.7,6.3,2.4l6.9,6.9c2.8,2.9,3.2,7.4.8,10.6l-4.6,7.2h0s-1.7,4.7,10.6,17c12.5,12.4,17.1,10.6,17.1,10.6l7.2-4.6c3.1-2.4,7.7-2,10.6.8l6.9,6.9c1.7,1.7,2.5,4,2.4,6.3s-1.3,4.5-3.2,5.9l-5.9,3.6c-.3.2-4.8,3.4-12.7,3.4h0ZM27.7,60.1s0,0,.1.1c27.6,27.4,44.8,15.7,45.5,15.2l5.9-3.6c1.2-.9,2-2.3,2.1-3.9.1-1.6-.5-3.1-1.6-4.3l-6.9-6.9c-1.9-1.9-5-2.1-7.2-.5l-7.4,4.7c-1,.6-6.6,2.8-20.4-11-13.8-13.8-11.6-19.4-11-20.3l4.7-7.4c1.7-2.2,1.5-5.3-.5-7.2l-6.9-6.9c-1.1-1.1-2.7-1.7-4.3-1.6-1.6.1-3,.9-3.9,2.1l-3.5,5.7c-.6.8-12.3,18,15.1,45.6,0,0,0,0,0,0,0,0,0,0,0,0h0Z"/>
</svg>